# xmcd
#
# Track frame offsets: 
#        182
#        14795
#        45842
#        65512
#        96270
#        113830
#        129652
#        150115
#        177607
#        197502
#        218342
#        229790
#        246797
#        268517
#        290475
#        315570
#
# Disc length: 4578 seconds
#
# Revision: 1
# Processed by: cddbd v1.5.2PL0 Copyright (c) Steve Scherf et al.
# Submitted via: ExactAudioCopy v0.99pb5
#
DISCID=d811e010
DTITLE=Milt Buckner - Masterpieces
DYEAR=1995
DGENRE=Jazz
TTITLE0=I De-Clare
TTITLE1=I Want A Little Girl To Call My Own
TTITLE2=Three O'Clock In The Morning
TTITLE3=Pennies From Heaven
TTITLE4=Four Brothers
TTITLE5=(Back Home Again In) Indiana
TTITLE6=If I Could Be With You (One Hour Tonight)
TTITLE7=Taking A Chance On Love
TTITLE8=Pick Yourself Up
TTITLE9=Robbins' Nest
TTITLE10=Hamp's Boogie Woogie
TTITLE11=SABA House Party
TTITLE12=Yours Is My Heart Alone
TTITLE13=Sunny
TTITLE14=Jitterburg Waltz
TTITLE15=Lil' Darlin'
EXTD=Milton Brent "Milt" Buckner (the "St. Louis Fireball") [1915--197
EXTD=7];\n\nPersonnel:\nMilt Buckner - piano, organ (14 and 15);\nJimmy 
EXTD=Woode - bass;\nKenny Clare - drums (01-08, 14-16);\nJo Jones - dr
EXTD=ums (09-13);\n\nRecorded by Hans Georg Brunner-Schwer at Villinge
EXTD=n/Germany in 1966, 1968 and 1969;\nProduced by Hans Georg Brunner
EXTD=Schwer;\n\nReissue produced by Christian Kellersmann and Jörg Eipa
EXTD=sch;\nCompiled by Hans Georg Brunner-Schwer;\n\n01-08 from origin
EXTD=al album "More Chords" (MPS 15.237);\n09-13 from original album "
EXTD=Play Cords" (MPS 15.110);\n14-16 from original album "Locked Hand
EXTD=s" (MPS 15.159);\n\nReleased: Oct 30, 1995;\nLabel: MPS Records;\n
EXTD=Catalog # 529 094-2;\n21 bit remastering\n\n(p) 1967-1969 MPS Rec
EXTD=ords;\n(c) 1995 Motor Music;\n\nhttp://www.jazzdocumentation.ch/b
EXTD=uckner/discography/buckner1.html
EXTT0=
EXTT1=
EXTT2=
EXTT3=
EXTT4=
EXTT5=
EXTT6=
EXTT7=
EXTT8=
EXTT9=
EXTT10=
EXTT11=
EXTT12=
EXTT13=
EXTT14=
EXTT15=
PLAYORDER=
